<svg xmlns="http://www.w3.org/2000/svg" width="19" height="12" viewBox="0 0 19 12">
  <defs>
    <style>
      .cls-1 {
        fill: #b4b4b4;
        fill-rule: evenodd;
      }
    </style>
  </defs>
  <path id="cloud_ico" class="cls-1" d="M793.326,254.5A6.09,6.09,0,0,0,782.2,253a4.508,4.508,0,0,0,.525,9h10.287A3.9,3.9,0,0,0,797,258.2,4.14,4.14,0,0,0,793.326,254.5ZM792.7,260H782.2c-1.785,0-2.2-1.4-2.1-3a2.571,2.571,0,0,1,3.15-2,4.383,4.383,0,0,1,4.2-3,4.049,4.049,0,0,1,4.2,4h1.05a2.194,2.194,0,0,1,2.1,2A1.841,1.841,0,0,1,792.7,260Z" transform="translate(-778 -250)"/>
</svg>
