<?xml version="1.0" standalone="no"?>
<!DOCTYPE svg PUBLIC "-//W3C//DTD SVG 20010904//EN"
 "http://www.w3.org/TR/2001/REC-SVG-20010904/DTD/svg10.dtd">
<svg version="1.0" xmlns="http://www.w3.org/2000/svg"
 width="656.000000pt" height="656.000000pt" viewBox="0 0 656.000000 656.000000"
 preserveAspectRatio="xMidYMid meet">
<metadata>
Created by potrace 1.11, written by Peter Selinger 2001-2013
</metadata>
<g transform="translate(0.000000,656.000000) scale(0.100000,-0.100000)"
fill="#000000" stroke="none">
<path d="M2958 6475 c-2 -1 -37 -5 -78 -9 -41 -3 -84 -8 -95 -10 -11 -2 -42
-7 -68 -10 -27 -4 -59 -9 -70 -12 -12 -2 -38 -7 -57 -10 -63 -9 -314 -73 -360
-91 -8 -3 -21 -7 -27 -9 -18 -3 -151 -53 -198 -73 -22 -10 -56 -24 -75 -32
-63 -26 -278 -137 -357 -185 -118 -71 -302 -201 -369 -260 -12 -11 -44 -37
-70 -59 -170 -139 -424 -426 -559 -630 -22 -33 -42 -62 -46 -65 -12 -11 -130
-221 -178 -319 -29 -57 -72 -153 -97 -215 -25 -61 -49 -120 -54 -131 -35 -79
-123 -406 -136 -500 -1 -11 -3 -20 -4 -20 -2 0 -8 -32 -15 -82 -3 -24 -7 -48
-10 -55 -2 -7 -6 -38 -9 -68 -3 -30 -9 -89 -13 -130 -10 -93 -10 -502 0 -590
4 -36 9 -83 11 -105 4 -36 8 -63 23 -155 2 -14 6 -38 8 -55 2 -16 9 -48 15
-70 6 -22 12 -52 15 -67 2 -15 9 -46 16 -70 7 -24 13 -47 15 -53 11 -52 66
-229 83 -270 5 -11 19 -47 32 -80 72 -190 181 -404 304 -595 43 -68 172 -248
185 -260 3 -3 25 -30 50 -60 25 -30 54 -64 65 -76 146 -153 192 -199 310 -304
128 -114 339 -262 515 -361 143 -81 370 -189 395 -189 4 0 21 -6 38 -14 111
-49 49 -46 1093 -46 l977 0 68 25 c166 59 509 223 517 246 2 5 9 9 16 9 21 0
283 180 381 261 184 154 330 299 463 464 31 39 59 72 63 75 13 12 129 181 129
189 0 5 7 14 15 21 16 13 106 166 104 176 0 4 4 10 9 13 12 7 117 215 157 311
50 116 119 308 130 355 2 11 18 70 35 130 16 61 35 135 40 165 6 30 12 66 15
80 3 14 7 41 10 60 3 19 7 46 10 60 5 25 10 72 22 205 14 149 7 555 -12 680
-3 17 -7 50 -9 75 -3 25 -6 45 -6 45 -2 0 -9 37 -15 74 -2 18 -7 41 -9 50 -3
9 -8 30 -11 48 -14 86 -90 352 -125 438 -4 11 -19 49 -34 85 -14 36 -26 68
-26 72 0 22 -189 387 -216 419 -8 8 -14 19 -14 23 0 7 -135 208 -160 239 -6 7
-31 39 -57 72 -26 33 -51 62 -55 63 -4 2 -8 7 -8 12 0 12 -64 83 -205 225
-147 148 -209 203 -330 295 -22 16 -45 34 -51 39 -15 12 -144 99 -204 136
-107 68 -308 171 -425 219 -38 16 -83 35 -100 41 -151 63 -444 141 -635 170
-68 10 -116 16 -160 21 -52 5 -517 14 -522 9z m387 -670 c39 -2 90 -6 115 -9
105 -12 145 -18 150 -21 3 -2 25 -6 48 -10 52 -7 284 -70 332 -89 19 -8 78
-31 130 -52 52 -20 97 -41 98 -46 2 -4 9 -5 14 -2 6 4 8 2 4 -4 -5 -8 -135
-58 -143 -54 -2 0 -17 -3 -34 -8 -18 -5 -48 -12 -68 -15 -20 -3 -48 -8 -61
-11 -14 -3 -35 -7 -48 -10 -102 -21 -355 -127 -373 -156 -3 -5 -9 -9 -13 -9
-7 1 -80 -46 -115 -74 -125 -101 -218 -201 -291 -310 -19 -27 -36 -52 -39 -55
-13 -12 -134 -267 -137 -290 0 -3 -6 -25 -13 -50 -7 -25 -14 -52 -16 -60 -2
-8 -8 -33 -13 -55 -6 -22 -13 -60 -17 -85 -6 -43 -11 -74 -18 -112 -2 -10 -6
-21 -10 -24 -4 -4 -7 -14 -7 -22 0 -20 -75 -171 -102 -206 -27 -33 -115 -122
-150 -151 -32 -26 -161 -91 -218 -110 -5 -2 -72 -15 -105 -21 -11 -2 -40 -7
-65 -10 -60 -8 -197 -48 -271 -79 -91 -39 -234 -119 -259 -145 -3 -3 -24 -19
-47 -36 -216 -156 -414 -457 -487 -739 -16 -65 -22 -96 -40 -219 -4 -21 -8
-42 -11 -46 -2 -3 -7 -22 -10 -41 -9 -52 -83 -195 -126 -242 -21 -23 -38 -37
-39 -31 0 6 -10 33 -22 60 -12 27 -23 51 -23 54 -1 3 -6 16 -12 30 -16 39 -55
153 -58 173 -2 9 -7 22 -11 28 -4 7 -8 19 -8 28 -1 9 -8 36 -15 61 -7 25 -15
54 -17 65 -16 71 -26 125 -30 155 -2 19 -6 46 -9 60 -12 57 -14 74 -21 162
-13 165 -6 501 11 568 2 8 6 33 9 55 7 45 17 112 21 135 10 55 59 247 64 255
4 6 16 39 26 75 10 36 22 70 25 75 4 6 13 28 20 50 7 22 29 74 49 115 19 41
36 77 36 80 1 5 37 74 67 130 14 27 20 36 117 185 36 55 70 105 75 111 6 6 22
26 36 44 48 64 194 225 249 274 13 12 41 38 62 59 22 20 44 37 49 37 6 0 10 4
10 8 0 14 272 212 291 212 5 0 9 5 9 11 0 5 4 8 9 4 5 -3 12 -1 16 5 9 15 158
94 275 146 150 66 396 145 496 159 11 2 45 8 75 14 64 13 128 21 229 28 41 3
76 6 78 8 3 3 178 -3 277 -10z m1521 -657 c38 -36 147 -146 204 -207 36 -38
160 -201 160 -210 0 -5 3 -11 8 -13 13 -6 70 -94 108 -167 l18 -34 -61 -58
c-93 -86 -221 -154 -328 -172 -16 -3 -48 -8 -70 -12 -22 -3 -67 -13 -100 -21
-33 -8 -69 -16 -79 -19 -53 -13 -100 -32 -196 -78 -58 -29 -106 -55 -108 -59
-2 -5 -8 -8 -13 -8 -21 0 -145 -98 -228 -180 -87 -85 -181 -199 -181 -219 0
-6 -4 -11 -10 -11 -5 0 -10 -7 -10 -15 0 -8 -4 -15 -9 -15 -5 0 -14 -12 -20
-27 -6 -16 -23 -48 -37 -73 -52 -93 -118 -300 -138 -432 -3 -21 -9 -55 -12
-75 -21 -143 -109 -300 -227 -408 -68 -62 -184 -131 -252 -150 -16 -4 -34 -9
-40 -11 -24 -7 -53 -12 -100 -18 -217 -29 -457 -135 -645 -285 -111 -89 -254
-255 -315 -367 -15 -27 -31 -53 -35 -59 -8 -11 -81 -175 -84 -190 -2 -5 -10
-35 -20 -66 -9 -31 -19 -66 -21 -78 -3 -11 -7 -31 -10 -44 -3 -12 -8 -38 -11
-57 -14 -91 -37 -188 -50 -214 -8 -16 -14 -34 -14 -40 0 -6 -13 -32 -28 -58
l-28 -47 -74 48 c-126 80 -279 207 -412 342 -69 70 -131 136 -136 146 -8 15 5
34 81 114 108 112 180 214 240 341 42 87 91 222 101 278 3 14 7 36 10 50 6 25
13 72 21 131 25 190 148 387 309 498 24 17 48 31 52 31 4 0 15 6 23 13 32 27
142 59 246 72 28 4 58 8 67 11 9 3 27 7 40 10 26 6 26 6 88 23 25 7 50 16 55
19 6 4 12 7 15 8 8 1 60 23 100 42 45 21 200 114 229 138 89 73 123 103 173
158 64 68 152 187 191 257 13 25 30 54 35 65 61 107 120 303 137 449 2 17 6
44 9 60 4 17 8 43 11 58 15 77 84 219 140 286 100 120 250 213 378 235 15 3
35 7 45 10 9 3 43 7 76 11 32 3 67 10 77 16 11 5 19 8 19 5 0 -9 103 25 190
62 132 55 256 134 355 224 16 16 33 28 38 28 4 0 28 -19 53 -42z m765 -1295
c0 -5 2 -15 5 -23 9 -36 25 -108 29 -135 2 -16 7 -41 10 -55 3 -14 7 -41 10
-60 2 -19 7 -57 11 -85 8 -60 14 -517 7 -528 -3 -5 -7 -33 -9 -62 -2 -30 -6
-69 -10 -87 -3 -18 -7 -46 -10 -63 -6 -46 -34 -173 -56 -250 -10 -38 -21 -79
-23 -89 -6 -27 -27 -89 -34 -101 -3 -5 -6 -14 -7 -20 -8 -46 -128 -306 -200
-435 -31 -55 -144 -226 -174 -263 -174 -219 -299 -345 -480 -488 -55 -43 -207
-149 -214 -149 -3 0 -24 -13 -48 -29 -61 -41 -297 -153 -403 -191 -49 -18 -99
-36 -110 -41 -11 -5 -29 -10 -40 -12 -11 -2 -45 -11 -75 -20 -30 -9 -66 -18
-80 -21 -14 -2 -59 -11 -100 -19 -103 -21 -205 -34 -351 -44 -184 -13 -333 -7
-494 21 -22 4 -53 8 -70 11 -27 3 -228 54 -232 58 0 1 14 34 32 72 37 79 81
210 91 270 3 22 7 42 9 45 2 3 6 26 10 50 3 25 8 59 11 75 23 153 91 296 190
401 122 127 254 193 441 219 104 15 279 69 356 111 15 8 27 12 27 7 0 -4 4 -3
8 2 4 6 27 21 52 34 144 78 307 220 413 361 80 106 68 87 129 200 54 101 117
279 133 375 12 70 17 103 19 125 5 38 35 140 58 190 51 112 152 233 251 299
89 60 213 107 310 116 40 4 97 14 119 21 9 3 25 6 35 8 90 18 366 140 393 175
7 8 43 30 53 30 4 1 7 -2 8 -6z"/>
</g>
</svg>
