<svg xmlns="http://www.w3.org/2000/svg" width="17" height="14" viewBox="0 0 17 14">
  <defs>
    <style>
      .cls-1 {
        fill: #fff;
        fill-rule: evenodd;
      }
    </style>
  </defs>
  <path id="photo" class="cls-1" d="M40.5,82.25a2.626,2.626,0,1,0,2.55,2.625A2.589,2.589,0,0,0,40.5,82.25Zm6.8-2.625H45.26a0.76,0.76,0,0,1-.671-0.5L44.062,77.5A0.76,0.76,0,0,0,43.39,77H37.61a0.76,0.76,0,0,0-.672.5l-0.527,1.629a0.76,0.76,0,0,1-.671.5H33.7a1.73,1.73,0,0,0-1.7,1.75V89.25A1.731,1.731,0,0,0,33.7,91H47.3A1.731,1.731,0,0,0,49,89.25V81.375A1.731,1.731,0,0,0,47.3,79.625ZM40.5,89.25a4.377,4.377,0,1,1,4.25-4.375A4.314,4.314,0,0,1,40.5,89.25Zm6.2-6.651a0.613,0.613,0,1,1,.595-0.612A0.6,0.6,0,0,1,46.705,82.6Z" transform="translate(-32 -77)"/>
</svg>
