<svg xmlns="http://www.w3.org/2000/svg" xmlns:xlink="http://www.w3.org/1999/xlink" width="16" height="16" viewBox="0 0 16 16">
  <defs>
    <style>
      .cls-1 {
        fill: #a9a8a8;
        fill-rule: evenodd;
        filter: url(#filter);
      }
    </style>
    <filter id="filter" x="31" y="1002" width="16" height="16" filterUnits="userSpaceOnUse">
      <feFlood result="flood" flood-color="#fff"/>
      <feComposite result="composite" operator="in" in2="SourceGraphic"/>
      <feBlend result="blend" in2="SourceGraphic"/>
    </filter>
  </defs>
  <path id="poisk_ico" class="cls-1" d="M42.922,1012.3L47,1016.4l-1.6,1.6-4.076-4.08a6.666,6.666,0,0,1-3.765,1.2,6.558,6.558,0,1,1,6.564-6.56A6.521,6.521,0,0,1,42.922,1012.3Zm-2.03-.41a4.746,4.746,0,0,0,1.235-3.33,4.6,4.6,0,0,0-1.235-3.27,4.828,4.828,0,0,0-3.337-1.32,4.621,4.621,0,1,0,0,9.24A4.828,4.828,0,0,0,40.893,1011.89Z" transform="translate(-31 -1002)"/>
</svg>
